SolidWorks IGES file using analytic representation for surfaces         S      1
1H,,1H;,10H8_ROLLER 1,119HC:\Users\kaziw\OneDrive\Desktop\DESIGN OF MACHG      1
INE SYSTEMS\ASSIGNMENT 1 SUGERCANE MACHINE\SUGARCANE FINAL\8_ROLLER 1.IGG      2
S,15HSolidWorks 2023,15HSolidWorks 2023,32,308,15,308,15,10H8_ROLLER 1, G      3
1.,2,2HMM,50,0.125,13H240912.004114,1E-08,499990.,5Hkaziw,,11,0,13H24091G      4
2.004114;                                                               G      5
     314       1       0       0       0                        00000200D      1
     314       0       6       1       0                               0D      2
     110       2       0       0       0                        01010000D      3
     110       0       0       1       0                               0D      4
     110       3       0       0       0                        01010000D      5
     110       0       0       1       0                               0D      6
     120       4       0       0       0                        01010000D      7
     120       0       0       1       0                               0D      8
     126       5       0       0       0                        01010500D      9
     126       0       0       2       0                               0D     10
     124       7       0       0       0                        00000000D     11
     124       0       0       4       0                               0D     12
     100      11       0       0       0              11        01010000D     13
     100       0       0       1       0                               0D     14
     126      12       0       0       0                        01010500D     15
     126       0       0       2       0                               0D     16
     110      14       0       0       0                        01010000D     17
     110       0       0       1       0                               0D     18
     126      15       0       0       0                        01010500D     19
     126       0       0       2       0                               0D     20
     100      17       0       0       0                        01010000D     21
     100       0       0       1       0                               0D     22
     126      18       0       0       0                        01010500D     23
     126       0       0       2       0                               0D     24
     110      20       0       0       0                        01010000D     25
     110       0       0       1       0                               0D     26
     102      21       0       0       0                        01010500D     27
     102       0       0       1       0                               0D     28
     102      22       0       0       0                        01010000D     29
     102       0       0       1       0                               0D     30
     142      23       0       0       0                        00010500D     31
     142       0       0       1       0                               0D     32
     144      24       0       0       0                        00000000D     33
     144       0      -1       1       0                               0D     34
     110      25       0       0       0                        01010000D     35
     110       0       0       1       0                               0D     36
     110      26       0       0       0                        01010000D     37
     110       0       0       1       0                               0D     38
     120      27       0       0       0                        01010000D     39
     120       0       0       1       0                               0D     40
     126      28       0       0       0                        01010500D     41
     126       0       0       2       0                               0D     42
     124      30       0       0       0                        00000000D     43
     124       0       0       4       0                               0D     44
     100      34       0       0       0              43        01010000D     45
     100       0       0       1       0                               0D     46
     126      35       0       0       0                        01010500D     47
     126       0       0       2       0                               0D     48
     110      37       0       0       0                        01010000D     49
     110       0       0       1       0                               0D     50
     126      38       0       0       0                        01010500D     51
     126       0       0       2       0                               0D     52
     100      40       0       0       0                        01010000D     53
     100       0       0       1       0                               0D     54
     126      41       0       0       0                        01010500D     55
     126       0       0       2       0                               0D     56
     110      43       0       0       0                        01010000D     57
     110       0       0       1       0                               0D     58
     102      44       0       0       0                        01010500D     59
     102       0       0       1       0                               0D     60
     102      45       0       0       0                        01010000D     61
     102       0       0       1       0                               0D     62
     142      46       0       0       0                        00010500D     63
     142       0       0       1       0                               0D     64
     144      47       0       0       0                        00000000D     65
     144       0      -1       1       0                               0D     66
     110      48       0       0       0                        01010000D     67
     110       0       0       1       0                               0D     68
     110      49       0       0       0                        01010000D     69
     110       0       0       1       0                               0D     70
     120      50       0       0       0                        01010000D     71
     120       0       0       1       0                               0D     72
     126      51       0       0       0                        01010500D     73
     126       0       0       2       0                               0D     74
     124      53       0       0       0                        00000000D     75
     124       0       0       3       0                               0D     76
     100      56       0       0       0              75        01010000D     77
     100       0       0       1       0                               0D     78
     126      57       0       0       0                        01010500D     79
     126       0       0       2       0                               0D     80
     110      59       0       0       0                        01010000D     81
     110       0       0       1       0                               0D     82
     126      60       0       0       0                        01010500D     83
     126       0       0       2       0                               0D     84
     100      62       0       0       0                        01010000D     85
     100       0       0       1       0                               0D     86
     126      63       0       0       0                        01010500D     87
     126       0       0       2       0                               0D     88
     110      65       0       0       0                        01010000D     89
     110       0       0       1       0                               0D     90
     126      66       0       0       0                        01010500D     91
     126       0       0       2       0                               0D     92
     100      68       0       0       0                        01010000D     93
     100       0       0       1       0                               0D     94
     126      69       0       0       0                        01010500D     95
     126       0       0       2       0                               0D     96
     110      71       0       0       0                        01010000D     97
     110       0       0       1       0                               0D     98
     126      72       0       0       0                        01010500D     99
     126       0       0       2       0                               0D    100
     100      74       0       0       0                        01010000D    101
     100       0       0       1       0                               0D    102
     126      75       0       0       0                        01010500D    103
     126       0       0       2       0                               0D    104
     110      77       0       0       0                        01010000D    105
     110       0       0       1       0                               0D    106
     102      78       0       0       0                        01010500D    107
     102       0       0       1       0                               0D    108
     102      79       0       0       0                        01010000D    109
     102       0       0       1       0                               0D    110
     142      80       0       0       0                        00010500D    111
     142       0       0       1       0                               0D    112
     144      81       0       0       0                        00000000D    113
     144       0      -1       1       0                               0D    114
     110      82       0       0       0                        01010000D    115
     110       0       0       1       0                               0D    116
     110      83       0       0       0                        01010000D    117
     110       0       0       1       0                               0D    118
     120      84       0       0       0                        01010000D    119
     120       0       0       1       0                               0D    120
     126      85       0       0       0                        01010500D    121
     126       0       0       2       0                               0D    122
     110      87       0       0       0                        01010000D    123
     110       0       0       1       0                               0D    124
     126      88       0       0       0                        01010500D    125
     126       0       0       2       0                               0D    126
     124      90       0       0       0                        00000000D    127
     124       0       0       3       0                               0D    128
     100      93       0       0       0             127        01010000D    129
     100       0       0       1       0                               0D    130
     126      94       0       0       0                        01010500D    131
     126       0       0       2       0                               0D    132
     110      96       0       0       0                        01010000D    133
     110       0       0       1       0                               0D    134
     126      97       0       0       0                        01010500D    135
     126       0       0       2       0                               0D    136
     100      99       0       0       0                        01010000D    137
     100       0       0       1       0                               0D    138
     102     100       0       0       0                        01010500D    139
     102       0       0       1       0                               0D    140
     102     101       0       0       0                        01010000D    141
     102       0       0       1       0                               0D    142
     142     102       0       0       0                        00010500D    143
     142       0       0       1       0                               0D    144
     144     103       0       0       0                        00000000D    145
     144       0      -1       1       0                               0D    146
     110     104       0       0       0                        01010000D    147
     110       0       0       1       0                               0D    148
     110     105       0       0       0                        01010000D    149
     110       0       0       1       0                               0D    150
     120     106       0       0       0                        01010000D    151
     120       0       0       1       0                               0D    152
     126     107       0       0       0                        01010500D    153
     126       0       0       2       0                               0D    154
     110     109       0       0       0                        01010000D    155
     110       0       0       1       0                               0D    156
     126     110       0       0       0                        01010500D    157
     126       0       0       2       0                               0D    158
     124     112       0       0       0                        00000000D    159
     124       0       0       3       0                               0D    160
     100     115       0       0       0             159        01010000D    161
     100       0       0       1       0                               0D    162
     126     116       0       0       0                        01010500D    163
     126       0       0       2       0                               0D    164
     110     118       0       0       0                        01010000D    165
     110       0       0       1       0                               0D    166
     126     119       0       0       0                        01010500D    167
     126       0       0       2       0                               0D    168
     100     121       0       0       0                        01010000D    169
     100       0       0       1       0                               0D    170
     102     122       0       0       0                        01010500D    171
     102       0       0       1       0                               0D    172
     102     123       0       0       0                        01010000D    173
     102       0       0       1       0                               0D    174
     142     124       0       0       0                        00010500D    175
     142       0       0       1       0                               0D    176
     144     125       0       0       0                        00000000D    177
     144       0      -1       1       0                               0D    178
     128     126       0       0       0                        01010000D    179
     128       0       0       3       0                               0D    180
     126     129       0       0       0                        01010500D    181
     126       0       0      44       0                               0D    182
     100     173       0       0       0                        01010000D    183
     100       0       0       1       0                               0D    184
     126     174       0       0       0                        01010500D    185
     126       0       0      44       0                               0D    186
     100     218       0       0       0                        01010000D    187
     100       0       0       1       0                               0D    188
     102     219       0       0       0                        01010500D    189
     102       0       0       1       0                               0D    190
     102     220       0       0       0                        01010000D    191
     102       0       0       1       0                               0D    192
     142     221       0       0       0                        00010500D    193
     142       0       0       1       0                               0D    194
     126     222       0       0       0                        01010500D    195
     126       0       0      22       0                               0D    196
     124     244       0       0       0                        00000000D    197
     124       0       0       3       0                               0D    198
     100     247       0       0       0             197        01010000D    199
     100       0       0       1       0                               0D    200
     126     248       0       0       0                        01010500D    201
     126       0       0      22       0                               0D    202
     124     270       0       0       0                        00000000D    203
     124       0       0       4       0                               0D    204
     100     274       0       0       0             203        01010000D    205
     100       0       0       1       0                               0D    206
     102     275       0       0       0                        01010500D    207
     102       0       0       1       0                               0D    208
     102     276       0       0       0                        01010000D    209
     102       0       0       1       0                               0D    210
     142     277       0       0       0                        00010500D    211
     142       0       0       1       0                               0D    212
     144     278       0       0       0                        00000000D    213
     144       0      -1       1       0                               0D    214
     128     279       0       0       0                        01010000D    215
     128       0       0       3       0                               0D    216
     126     282       0       0       0                        01010500D    217
     126       0       0      44       0                               0D    218
     100     326       0       0       0                        01010000D    219
     100       0       0       1       0                               0D    220
     126     327       0       0       0                        01010500D    221
     126       0       0      44       0                               0D    222
     100     371       0       0       0                        01010000D    223
     100       0       0       1       0                               0D    224
     102     372       0       0       0                        01010500D    225
     102       0       0       1       0                               0D    226
     102     373       0       0       0                        01010000D    227
     102       0       0       1       0                               0D    228
     142     374       0       0       0                        00010500D    229
     142       0       0       1       0                               0D    230
     126     375       0       0       0                        01010500D    231
     126       0       0      22       0                               0D    232
     124     397       0       0       0                        00000000D    233
     124       0       0       3       0                               0D    234
     100     400       0       0       0             233        01010000D    235
     100       0       0       1       0                               0D    236
     126     401       0       0       0                        01010500D    237
     126       0       0      22       0                               0D    238
     124     423       0       0       0                        00000000D    239
     124       0       0       3       0                               0D    240
     100     426       0       0       0             239        01010000D    241
     100       0       0       1       0                               0D    242
     102     427       0       0       0                        01010500D    243
     102       0       0       1       0                               0D    244
     102     428       0       0       0                        01010000D    245
     102       0       0       1       0                               0D    246
     142     429       0       0       0                        00010500D    247
     142       0       0       1       0                               0D    248
     144     430       0       0       0                        00000000D    249
     144       0      -1       1       0                               0D    250
     110     431       0       0       0                        01010000D    251
     110       0       0       1       0                               0D    252
     110     432       0       0       0                        01010000D    253
     110       0       0       1       0                               0D    254
     120     433       0       0       0                        01010000D    255
     120       0       0       1       0                               0D    256
     126     434       0       0       0                        01010500D    257
     126       0       0       2       0                               0D    258
     110     436       0       0       0                        01010000D    259
     110       0       0       1       0                               0D    260
     126     437       0       0       0                        01010500D    261
     126       0       0       2       0                               0D    262
     124     439       0       0       0                        00000000D    263
     124       0       0       3       0                               0D    264
     100     442       0       0       0             263        01010000D    265
     100       0       0       1       0                               0D    266
     126     443       0       0       0                        01010500D    267
     126       0       0       2       0                               0D    268
     110     445       0       0       0                        01010000D    269
     110       0       0       1       0                               0D    270
     126     446       0       0       0                        01010500D    271
     126       0       0       2       0                               0D    272
     100     448       0       0       0                        01010000D    273
     100       0       0       1       0                               0D    274
     102     449       0       0       0                        01010500D    275
     102       0       0       1       0                               0D    276
     102     450       0       0       0                        01010000D    277
     102       0       0       1       0                               0D    278
     142     451       0       0       0                        00010500D    279
     142       0       0       1       0                               0D    280
     144     452       0       0       0                        00000000D    281
     144       0      -1       1       0                               0D    282
     128     453       0       0       0                        01010000D    283
     128       0       0       3       0                               0D    284
     126     456       0       0       0                        01010500D    285
     126       0       0      44       0                               0D    286
     100     500       0       0       0                        01010000D    287
     100       0       0       1       0                               0D    288
     126     501       0       0       0                        01010500D    289
     126       0       0      44       0                               0D    290
     100     545       0       0       0                        01010000D    291
     100       0       0       1       0                               0D    292
     102     546       0       0       0                        01010500D    293
     102       0       0       1       0                               0D    294
     102     547       0       0       0                        01010000D    295
     102       0       0       1       0                               0D    296
     142     548       0       0       0                        00010500D    297
     142       0       0       1       0                               0D    298
     144     549       0       0       0                        00000000D    299
     144       0      -1       1       0                               0D    300
     128     550       0       0       0                        01010000D    301
     128       0       0       3       0                               0D    302
     126     553       0       0       0                        01010500D    303
     126       0       0      12       0                               0D    304
     124     565       0       0       0                        00000000D    305
     124       0       0       4       0                               0D    306
     100     569       0       0       0             305        01010000D    307
     100       0       0       1       0                               0D    308
     126     570       0       0       0                        01010500D    309
     126       0       0      44       0                               0D    310
     124     614       0       0       0                        00000000D    311
     124       0       0       3       0                               0D    312
     100     617       0       0       0             311        01010000D    313
     100       0       0       1       0                               0D    314
     126     618       0       0       0                        01010500D    315
     126       0       0      12       0                               0D    316
     124     630       0       0       0                        00000000D    317
     124       0       0       3       0                               0D    318
     100     633       0       0       0             317        01010000D    319
     100       0       0       1       0                               0D    320
     126     634       0       0       0                        01010500D    321
     126       0       0       2       0                               0D    322
     110     636       0       0       0                        01010000D    323
     110       0       0       1       0                               0D    324
     126     637       0       0       0                        01010500D    325
     126       0       0       2       0                               0D    326
     110     639       0       0       0                        01010000D    327
     110       0       0       1       0                               0D    328
     126     640       0       0       0                        01010500D    329
     126       0       0       2       0                               0D    330
     110     642       0       0       0                        01010000D    331
     110       0       0       1       0                               0D    332
     102     643       0       0       0                        01010500D    333
     102       0       0       1       0                               0D    334
     102     644       0       0       0                        01010000D    335
     102       0       0       1       0                               0D    336
     142     645       0       0       0                        00010500D    337
     142       0       0       1       0                               0D    338
     144     646       0       0       0                        00000000D    339
     144       0      -1       1       0                               0D    340
     128     647       0       0       0                        01010000D    341
     128       0       0       3       0                               0D    342
     126     650       0       0       0                        01010500D    343
     126       0       0       2       0                               0D    344
     110     652       0       0       0                        01010000D    345
     110       0       0       1       0                               0D    346
     126     653       0       0       0                        01010500D    347
     126       0       0       2       0                               0D    348
     110     655       0       0       0                        01010000D    349
     110       0       0       1       0                               0D    350
     126     656       0       0       0                        01010500D    351
     126       0       0       2       0                               0D    352
     110     658       0       0       0                        01010000D    353
     110       0       0       1       0                               0D    354
     126     659       0       0       0                        01010500D    355
     126       0       0       2       0                               0D    356
     110     661       0       0       0                        01010000D    357
     110       0       0       1       0                               0D    358
     102     662       0       0       0                        01010500D    359
     102       0       0       1       0                               0D    360
     102     663       0       0       0                        01010000D    361
     102       0       0       1       0                               0D    362
     142     664       0       0       0                        00010500D    363
     142       0       0       1       0                               0D    364
     144     665       0       0       0                        00000000D    365
     144       0      -1       1       0                               0D    366
     128     666       0       0       0                        01010000D    367
     128       0       0       3       0                               0D    368
     126     669       0       0       0                        01010500D    369
     126       0       0       2       0                               0D    370
     110     671       0       0       0                        01010000D    371
     110       0       0       1       0                               0D    372
     126     672       0       0       0                        01010500D    373
     126       0       0       2       0                               0D    374
     110     674       0       0       0                        01010000D    375
     110       0       0       1       0                               0D    376
     126     675       0       0       0                        01010500D    377
     126       0       0       2       0                               0D    378
     110     677       0       0       0                        01010000D    379
     110       0       0       1       0                               0D    380
     126     678       0       0       0                        01010500D    381
     126       0       0       2       0                               0D    382
     110     680       0       0       0                        01010000D    383
     110       0       0       1       0                               0D    384
     102     681       0       0       0                        01010500D    385
     102       0       0       1       0                               0D    386
     102     682       0       0       0                        01010000D    387
     102       0       0       1       0                               0D    388
     142     683       0       0       0                        00010500D    389
     142       0       0       1       0                               0D    390
     144     684       0       0       0                        00000000D    391
     144       0      -1       1       0                               0D    392
     128     685       0       0       0                        01010000D    393
     128       0       0       3       0                               0D    394
     126     688       0       0       0                        01010500D    395
     126       0       0       2       0                               0D    396
     110     690       0       0       0                        01010000D    397
     110       0       0       1       0                               0D    398
     126     691       0       0       0                        01010500D    399
     126       0       0       2       0                               0D    400
     110     693       0       0       0                        01010000D    401
     110       0       0       1       0                               0D    402
     126     694       0       0       0                        01010500D    403
     126       0       0       2       0                               0D    404
     110     696       0       0       0                        01010000D    405
     110       0       0       1       0                               0D    406
     126     697       0       0       0                        01010500D    407
     126       0       0       2       0                               0D    408
     110     699       0       0       0                        01010000D    409
     110       0       0       1       0                               0D    410
     102     700       0       0       0                        01010500D    411
     102       0       0       1       0                               0D    412
     102     701       0       0       0                        01010000D    413
     102       0       0       1       0                               0D    414
     142     702       0       0       0                        00010500D    415
     142       0       0       1       0                               0D    416
     144     703       0       0       0                        00000000D    417
     144       0      -1       1       0                               0D    418
     128     704       0       0       0                        01010000D    419
     128       0       0       3       0                               0D    420
     126     707       0       0       0                        01010500D    421
     126       0       0       2       0                               0D    422
     110     709       0       0       0                        01010000D    423
     110       0       0       1       0                               0D    424
     126     710       0       0       0                        01010500D    425
     126       0       0       2       0                               0D    426
     110     712       0       0       0                        01010000D    427
     110       0       0       1       0                               0D    428
     126     713       0       0       0                        01010500D    429
     126       0       0       2       0                               0D    430
     110     715       0       0       0                        01010000D    431
     110       0       0       1       0                               0D    432
     126     716       0       0       0                        01010500D    433
     126       0       0       6       0                               0D    434
     100     722       0       0       0                        01010000D    435
     100       0       0       1       0                               0D    436
     102     723       0       0       0                        01010500D    437
     102       0       0       1       0                               0D    438
     102     724       0       0       0                        01010000D    439
     102       0       0       1       0                               0D    440
     142     725       0       0       0                        00010500D    441
     142       0       0       1       0                               0D    442
     144     726       0       0       0                        00000000D    443
     144       0      -1       1       0                               0D    444
314,64.7058823529412,61.9607843137255,58.8235294117647,;               1P      1
110,0.,0.,435.,0.,0.,-565.;                                            3P      2
110,-15.,0.,435.,-15.,0.,370.;                                         5P      3
120,3,5,0.,6.28318530717959;                                           7P      4
126,1,1,1,0,1,0,0.,0.,1.,1.,1.,1.,0.,0.,0.,0.,3.141592654,0.,          9P      5
0.,1.,0.,0.,1.;                                                        9P      6
124,-1.,-7.22789203751574E-15,8.55166289179392E-31,                   11P      7
-3.7199733579304E-28,-7.22789203751574E-15,1.,                        11P      8
-6.98296267768627E-15,3.03758876479353E-12,                           11P      9
4.96169340471388E-29,-6.98296267768627E-15,-1.,870.;                  11P     10
100,435.,0.,0.,15.,0.,-15.,0.;                                        13P     11
126,1,1,1,0,1,0,0.,0.,1.,1.,1.,1.,0.,3.141592654,0.,1.,               15P     12
3.141592654,0.,0.,1.,0.,0.,1.;                                        15P     13
110,15.,0.,435.,15.,0.,370.;                                          17P     14
126,1,1,1,0,1,0,0.,0.,1.,1.,1.,1.,1.,3.141592654,0.,1.,0.,0.,         19P     15
0.,1.,0.,0.,1.;                                                       19P     16
100,370.,0.,0.,15.,0.,-15.,0.;                                        21P     17
126,1,1,1,0,1,0,0.,0.,1.,1.,1.,1.,1.,0.,0.,0.,0.,0.,0.,1.,0.,         23P     18
0.,1.;                                                                23P     19
110,-15.,0.,370.,-15.,0.,435.;                                        25P     20
102,4,9,15,19,23;                                                     27P     21
102,4,13,17,21,25;                                                    29P     22
142,1,7,27,29,1;                                                      31P     23
144,7,1,0,31;                                                         33P     24
110,0.,0.,370.,0.,0.,-630.;                                           35P     25
110,-70.,0.,370.,-70.,0.,0.;                                          37P     26
120,35,37,0.,6.28318530717959;                                        39P     27
126,1,1,1,0,1,0,0.,0.,1.,1.,1.,1.,0.,0.,0.,0.,3.141592654,0.,         41P     28
0.,1.,0.,0.,1.;                                                       41P     29
124,-1.,-7.22789203751574E-15,8.55166289179392E-31,                   43P     30
-3.16411526996376E-28,-7.22789203751574E-15,1.,                       43P     31
-6.98296267768627E-15,2.58369619074392E-12,                           43P     32
4.96169340471388E-29,-6.98296267768627E-15,-1.,740.;                  43P     33
100,370.,0.,0.,70.,0.,-70.,0.;                                        45P     34
126,1,1,1,0,1,0,0.,0.,1.,1.,1.,1.,0.,3.141592654,0.,1.,               47P     35
3.141592654,0.,0.,1.,0.,0.,1.;                                        47P     36
110,70.,0.,370.,70.,0.,0.;                                            49P     37
126,1,1,1,0,1,0,0.,0.,1.,1.,1.,1.,1.,3.141592654,0.,1.,0.,0.,         51P     38
0.,1.,0.,0.,1.;                                                       51P     39
100,0.,0.,0.,70.,0.,-70.,0.;                                          53P     40
126,1,1,1,0,1,0,0.,0.,1.,1.,1.,1.,1.,0.,0.,0.,0.,0.,0.,1.,0.,         55P     41
0.,1.;                                                                55P     42
110,-70.,0.,0.,-70.,0.,370.;                                          57P     43
102,4,41,47,51,55;                                                    59P     44
102,4,45,49,53,57;                                                    61P     45
142,1,39,59,61,1;                                                     63P     46
144,39,1,0,63;                                                        65P     47
110,0.,0.,435.,0.,0.,-565.;                                           67P     48
110,-15.,0.,0.,-15.,0.,-155.;                                         69P     49
120,67,69,0.,6.28318530717959;                                        71P     50
126,1,1,1,0,1,0,0.,0.,1.,1.,1.,1.,0.,0.,0.,0.,3.141592654,0.,         73P     51
0.,1.,0.,0.,1.;                                                       73P     52
124,-1.,-7.22789203751574E-15,8.55166289179392E-31,0.,                75P     53
-7.22789203751574E-15,1.,-6.98296267768627E-15,0.,                    75P     54
4.96169340471388E-29,-6.98296267768627E-15,-1.,0.;                    75P     55
100,0.,0.,0.,15.,0.,-15.,0.;                                          77P     56
126,1,1,1,0,1,0,0.,0.,1.,1.,1.,1.,0.,3.141592654,0.,1.,               79P     57
3.141592654,0.,0.,1.,0.,0.,1.;                                        79P     58
110,15.,0.,0.,15.,0.,-155.;                                           81P     59
126,1,1,1,0,1,0,0.,0.,1.,1.,1.,1.,1.,3.141592654,0.,1.,               83P     60
1.910633236,0.,0.,1.,0.,0.,1.;                                        83P     61
100,-155.,0.,0.,15.,0.,5.,14.142135624;                               85P     62
126,1,1,1,0,1,0,0.,0.,1.,1.,1.,1.,1.,1.910633236,0.,0.64516129,       87P     63
1.910633236,0.,0.,1.,0.,0.,1.;                                        87P     64
110,5.,14.142135624,-155.,5.,14.142135624,-100.;                      89P     65
126,1,1,1,0,1,0,0.,0.,1.,1.,1.,1.,0.64516129,1.910633236,0.,          91P     66
0.64516129,1.230959417,0.,0.,1.,0.,0.,1.;                             91P     67
100,-100.,0.,0.,5.,14.142135624,-5.,14.142135624;                     93P     68
126,1,1,1,0,1,0,0.,0.,1.,1.,1.,1.,0.64516129,1.230959417,0.,1.,       95P     69
1.230959417,0.,0.,1.,0.,0.,1.;                                        95P     70
110,-5.,14.142135624,-100.,-5.,14.142135624,-155.;                    97P     71
126,1,1,1,0,1,0,0.,0.,1.,1.,1.,1.,1.,1.230959417,0.,1.,0.,0.,         99P     72
0.,1.,0.,0.,1.;                                                       99P     73
100,-155.,0.,0.,-5.,14.142135624,-15.,0.;                            101P     74
126,1,1,1,0,1,0,0.,0.,1.,1.,1.,1.,1.,0.,0.,0.,0.,0.,0.,1.,0.,        103P     75
0.,1.;                                                               103P     76
110,-15.,0.,-155.,-15.,0.,0.;                                        105P     77
102,8,73,79,83,87,91,95,99,103;                                      107P     78
102,8,77,81,85,89,93,97,101,105;                                     109P     79
142,1,71,107,109,1;                                                  111P     80
144,71,1,0,111;                                                      113P     81
110,0.,0.,435.,0.,0.,-565.;                                          115P     82
110,-15.,0.,0.,-15.,0.,-155.;                                        117P     83
120,115,117,0.,6.28318530717959;                                     119P     84
126,1,1,1,0,1,0,0.,0.,1.,1.,1.,1.,1.,3.141592654,0.,0.,              121P     85
3.141592654,0.,0.,1.,0.,0.,1.;                                       121P     86
110,15.,0.,-155.,15.,0.,0.;                                          123P     87
126,1,1,1,0,1,0,0.,0.,1.,1.,1.,1.,0.,3.141592654,0.,0.,              125P     88
6.283185307,0.,0.,1.,0.,0.,1.;                                       125P     89
124,1.,-7.105427357601E-15,0.,0.,-7.105427357601E-15,-1.,            127P     90
6.98296267768627E-15,0.,-4.96169340471387E-29,                       127P     91
-6.98296267768627E-15,-1.,0.;                                        127P     92
100,0.,0.,0.,15.,0.,-15.,0.;                                         129P     93
126,1,1,1,0,1,0,0.,0.,1.,1.,1.,1.,0.,6.283185307,0.,1.,              131P     94
6.283185307,0.,0.,1.,0.,0.,1.;                                       131P     95
110,-15.,0.,0.,-15.,0.,-155.;                                        133P     96
126,1,1,1,0,1,0,0.,0.,1.,1.,1.,1.,1.,6.283185307,0.,1.,              135P     97
3.141592654,0.,0.,1.,0.,0.,1.;                                       135P     98
100,-155.,0.,0.,-15.,0.,15.,0.;                                      137P     99
102,4,121,125,131,135;                                               139P    100
102,4,123,129,133,137;                                               141P    101
142,1,119,139,141,1;                                                 143P    102
144,119,1,0,143;                                                     145P    103
110,0.,0.,370.,0.,0.,-630.;                                          147P    104
110,-70.,0.,370.,-70.,0.,0.;                                         149P    105
120,147,149,0.,6.28318530717959;                                     151P    106
126,1,1,1,0,1,0,0.,0.,1.,1.,1.,1.,1.,3.141592654,0.,0.,              153P    107
3.141592654,0.,0.,1.,0.,0.,1.;                                       153P    108
110,70.,0.,0.,70.,0.,370.;                                           155P    109
126,1,1,1,0,1,0,0.,0.,1.,1.,1.,1.,0.,3.141592654,0.,0.,              157P    110
6.283185307,0.,0.,1.,0.,0.,1.;                                       157P    111
124,1.,-7.105427357601E-15,0.,0.,-7.105427357601E-15,-1.,            159P    112
6.98296267768627E-15,-2.58369619074392E-12,                          159P    113
-4.96169340471387E-29,-6.98296267768627E-15,-1.,740.;                159P    114
100,370.,0.,0.,70.,0.,-70.,0.;                                       161P    115
126,1,1,1,0,1,0,0.,0.,1.,1.,1.,1.,0.,6.283185307,0.,1.,              163P    116
6.283185307,0.,0.,1.,0.,0.,1.;                                       163P    117
110,-70.,0.,370.,-70.,0.,0.;                                         165P    118
126,1,1,1,0,1,0,0.,0.,1.,1.,1.,1.,1.,6.283185307,0.,1.,              167P    119
3.141592654,0.,0.,1.,0.,0.,1.;                                       167P    120
100,0.,0.,0.,-70.,0.,70.,0.;                                         169P    121
102,4,153,157,163,167;                                               171P    122
102,4,155,161,165,169;                                               173P    123
142,1,151,171,173,1;                                                 175P    124
144,151,1,0,175;                                                     177P    125
128,1,1,1,1,0,0,1,0,0,0.,0.,1.,1.,0.,0.,1.,1.,1.,1.,1.,1.,           179P    126
-70.84,-70.84,370.,70.84,-70.84,370.,-70.84,70.84,370.,70.84,        179P    127
70.84,370.,0.,1.,0.,1.;                                              179P    128
126,64,2,1,0,1,0,0.,0.,0.,0.03125,0.03125,0.0625,0.0625,             181P    129
0.09375,0.09375,0.125,0.125,0.15625,0.15625,0.1875,0.1875,           181P    130
0.21875,0.21875,0.25,0.25,0.28125,0.28125,0.3125,0.3125,             181P    131
0.34375,0.34375,0.375,0.375,0.40625,0.40625,0.4375,0.4375,           181P    132
0.46875,0.46875,0.5,0.5,0.53125,0.53125,0.5625,0.5625,0.59375,       181P    133
0.59375,0.625,0.625,0.65625,0.65625,0.6875,0.6875,0.71875,           181P    134
0.71875,0.75,0.75,0.78125,0.78125,0.8125,0.8125,0.84375,             181P    135
0.84375,0.875,0.875,0.90625,0.90625,0.9375,0.9375,0.96875,           181P    136
0.96875,1.,1.,1.,1.,1.,1.,1.,1.,1.,1.,1.,1.,1.,1.,1.,1.,1.,1.,       181P    137
1.,1.,1.,1.,1.,1.,1.,1.,1.,1.,1.,1.,1.,1.,1.,1.,1.,1.,1.,1.,1.,      181P    138
1.,1.,1.,1.,1.,1.,1.,1.,1.,1.,1.,1.,1.,1.,1.,1.,1.,1.,1.,1.,1.,      181P    139
1.,1.,1.,1.,1.,1.,1.,1.,0.005928854,0.5,0.,0.005928854,              181P    140
0.475727841,0.,0.008307941,0.451572559,0.,0.010687029,               181P    141
0.427417277,0.,0.015422292,0.403611501,0.,0.020157556,               181P    142
0.379805725,0.,0.027203391,0.356578717,0.,0.034249227,               181P    143
0.333351709,0.,0.04353778,0.310927158,0.,0.052826333,                181P    144
0.288502607,0.,0.06426815,0.267096474,0.,0.075709967,                181P    145
0.245690341,0.,0.089194856,0.225508778,0.,0.102679745,               181P    146
0.205327216,0.,0.118077839,0.186564583,0.,0.133475934,               181P    147
0.16780195,0.,0.150638942,0.150638942,0.,0.16780195,                 181P    148
0.133475934,0.,0.186564583,0.118077839,0.,0.205327216,               181P    149
0.102679745,0.,0.225508778,0.089194856,0.,0.245690341,               181P    150
0.075709967,0.,0.267096474,0.06426815,0.,0.288502607,                181P    151
0.052826333,0.,0.310927158,0.04353778,0.,0.333351709,                181P    152
0.034249227,0.,0.356578717,0.027203391,0.,0.379805725,               181P    153
0.020157556,0.,0.403611501,0.015422292,0.,0.427417277,               181P    154
0.010687029,0.,0.451572559,0.008307941,0.,0.475727841,               181P    155
0.005928854,0.,0.5,0.005928854,0.,0.524272159,0.005928854,0.,        181P    156
0.548427441,0.008307941,0.,0.572582723,0.010687029,0.,               181P    157
0.596388499,0.015422292,0.,0.620194275,0.020157556,0.,               181P    158
0.643421283,0.027203391,0.,0.666648291,0.034249227,0.,               181P    159
0.689072842,0.04353778,0.,0.711497393,0.052826333,0.,                181P    160
0.732903526,0.06426815,0.,0.754309659,0.075709967,0.,                181P    161
0.774491222,0.089194856,0.,0.794672784,0.102679745,0.,               181P    162
0.813435417,0.118077839,0.,0.83219805,0.133475934,0.,                181P    163
0.849361058,0.150638942,0.,0.866524066,0.16780195,0.,                181P    164
0.881922161,0.186564583,0.,0.897320255,0.205327216,0.,               181P    165
0.910805144,0.225508778,0.,0.924290033,0.245690341,0.,               181P    166
0.93573185,0.267096474,0.,0.947173667,0.288502607,0.,                181P    167
0.95646222,0.310927158,0.,0.965750773,0.333351709,0.,                181P    168
0.972796609,0.356578717,0.,0.979842444,0.379805725,0.,               181P    169
0.984577708,0.403611501,0.,0.989312971,0.427417277,0.,               181P    170
0.991692059,0.451572559,0.,0.994071146,0.475727841,0.,               181P    171
0.994071146,0.5,0.,0.,1.,0.,0.,-1.;                                  181P    172
100,370.,0.,0.,-70.,0.,70.,0.;                                       183P    173
126,64,2,1,0,1,0,0.,0.,0.,0.03125,0.03125,0.0625,0.0625,             185P    174
0.09375,0.09375,0.125,0.125,0.15625,0.15625,0.1875,0.1875,           185P    175
0.21875,0.21875,0.25,0.25,0.28125,0.28125,0.3125,0.3125,             185P    176
0.34375,0.34375,0.375,0.375,0.40625,0.40625,0.4375,0.4375,           185P    177
0.46875,0.46875,0.5,0.5,0.53125,0.53125,0.5625,0.5625,0.59375,       185P    178
0.59375,0.625,0.625,0.65625,0.65625,0.6875,0.6875,0.71875,           185P    179
0.71875,0.75,0.75,0.78125,0.78125,0.8125,0.8125,0.84375,             185P    180
0.84375,0.875,0.875,0.90625,0.90625,0.9375,0.9375,0.96875,           185P    181
0.96875,1.,1.,1.,1.,1.,1.,1.,1.,1.,1.,1.,1.,1.,1.,1.,1.,1.,1.,       185P    182
1.,1.,1.,1.,1.,1.,1.,1.,1.,1.,1.,1.,1.,1.,1.,1.,1.,1.,1.,1.,1.,      185P    183
1.,1.,1.,1.,1.,1.,1.,1.,1.,1.,1.,1.,1.,1.,1.,1.,1.,1.,1.,1.,1.,      185P    184
1.,1.,1.,1.,1.,1.,1.,1.,0.994071146,0.5,0.,0.994071146,              185P    185
0.524272159,0.,0.991692059,0.548427441,0.,0.989312971,               185P    186
0.572582723,0.,0.984577708,0.596388499,0.,0.979842444,               185P    187
0.620194275,0.,0.972796609,0.643421283,0.,0.965750773,               185P    188
0.666648291,0.,0.95646222,0.689072842,0.,0.947173667,                185P    189
0.711497393,0.,0.93573185,0.732903526,0.,0.924290033,                185P    190
0.754309659,0.,0.910805144,0.774491222,0.,0.897320255,               185P    191
0.794672784,0.,0.881922161,0.813435417,0.,0.866524066,               185P    192
0.83219805,0.,0.849361058,0.849361058,0.,0.83219805,                 185P    193
0.866524066,0.,0.813435417,0.881922161,0.,0.794672784,               185P    194
0.897320255,0.,0.774491222,0.910805144,0.,0.754309659,               185P    195
0.924290033,0.,0.732903526,0.93573185,0.,0.711497393,                185P    196
0.947173667,0.,0.689072842,0.95646222,0.,0.666648291,                185P    197
0.965750773,0.,0.643421283,0.972796609,0.,0.620194275,               185P    198
0.979842444,0.,0.596388499,0.984577708,0.,0.572582723,               185P    199
0.989312971,0.,0.548427441,0.991692059,0.,0.524272159,               185P    200
0.994071146,0.,0.5,0.994071146,0.,0.475727841,0.994071146,0.,        185P    201
0.451572559,0.991692059,0.,0.427417277,0.989312971,0.,               185P    202
0.403611501,0.984577708,0.,0.379805725,0.979842444,0.,               185P    203
0.356578717,0.972796609,0.,0.333351709,0.965750773,0.,               185P    204
0.310927158,0.95646222,0.,0.288502607,0.947173667,0.,                185P    205
0.267096474,0.93573185,0.,0.245690341,0.924290033,0.,                185P    206
0.225508778,0.910805144,0.,0.205327216,0.897320255,0.,               185P    207
0.186564583,0.881922161,0.,0.16780195,0.866524066,0.,                185P    208
0.150638942,0.849361058,0.,0.133475934,0.83219805,0.,                185P    209
0.118077839,0.813435417,0.,0.102679745,0.794672784,0.,               185P    210
0.089194856,0.774491222,0.,0.075709967,0.754309659,0.,               185P    211
0.06426815,0.732903526,0.,0.052826333,0.711497393,0.,                185P    212
0.04353778,0.689072842,0.,0.034249227,0.666648291,0.,                185P    213
0.027203391,0.643421283,0.,0.020157556,0.620194275,0.,               185P    214
0.015422292,0.596388499,0.,0.010687029,0.572582723,0.,               185P    215
0.008307941,0.548427441,0.,0.005928854,0.524272159,0.,               185P    216
0.005928854,0.5,0.,0.,1.,0.,0.,-1.;                                  185P    217
100,370.,0.,0.,70.,0.,-70.,0.;                                       187P    218
102,2,181,185;                                                       189P    219
102,2,183,187;                                                       191P    220
142,1,179,189,191,1;                                                 193P    221
126,32,2,1,0,1,0,0.,0.,0.,0.0625,0.0625,0.125,0.125,0.1875,          195P    222
0.1875,0.25,0.25,0.3125,0.3125,0.375,0.375,0.4375,0.4375,0.5,        195P    223
0.5,0.5625,0.5625,0.625,0.625,0.6875,0.6875,0.75,0.75,0.8125,        195P    224
0.8125,0.875,0.875,0.9375,0.9375,1.,1.,1.,1.,1.,1.,1.,1.,1.,1.,      195P    225
1.,1.,1.,1.,1.,1.,1.,1.,1.,1.,1.,1.,1.,1.,1.,1.,1.,1.,1.,1.,1.,      195P    226
1.,1.,1.,1.,1.,0.605872388,0.5,0.,0.605872388,0.48957248,0.,         195P    227
0.60383808,0.479345322,0.,0.601803772,0.469118163,0.,                195P    228
0.597813333,0.459484391,0.,0.593822894,0.449850619,0.,               195P    229
0.588029674,0.441180452,0.,0.582236454,0.432510286,0.,               195P    230
0.574863084,0.425136916,0.,0.567489714,0.417763546,0.,               195P    231
0.558819548,0.411970326,0.,0.550149381,0.406177106,0.,               195P    232
0.540515609,0.402186667,0.,0.530881837,0.398196228,0.,               195P    233
0.520654678,0.39616192,0.,0.51042752,0.394127612,0.,0.5,             195P    234
0.394127612,0.,0.48957248,0.394127612,0.,0.479345322,                195P    235
0.39616192,0.,0.469118163,0.398196228,0.,0.459484391,                195P    236
0.402186667,0.,0.449850619,0.406177106,0.,0.441180452,               195P    237
0.411970326,0.,0.432510286,0.417763546,0.,0.425136916,               195P    238
0.425136916,0.,0.417763546,0.432510286,0.,0.411970326,               195P    239
0.441180452,0.,0.406177106,0.449850619,0.,0.402186667,               195P    240
0.459484391,0.,0.398196228,0.469118163,0.,0.39616192,                195P    241
0.479345322,0.,0.394127612,0.48957248,0.,0.394127612,0.5,0.,0.,      195P    242
1.,0.,0.,1.;                                                         195P    243
124,1.,-7.105427357601E-15,0.,0.,-7.105427357601E-15,-1.,            197P    244
6.98296267768627E-15,-2.58369619074392E-12,                          197P    245
-4.96169340471387E-29,-6.98296267768627E-15,-1.,740.;                197P    246
100,370.,0.,0.,15.,0.,-15.,0.;                                       199P    247
126,32,2,1,0,1,0,0.,0.,0.,0.0625,0.0625,0.125,0.125,0.1875,          201P    248
0.1875,0.25,0.25,0.3125,0.3125,0.375,0.375,0.4375,0.4375,0.5,        201P    249
0.5,0.5625,0.5625,0.625,0.625,0.6875,0.6875,0.75,0.75,0.8125,        201P    250
0.8125,0.875,0.875,0.9375,0.9375,1.,1.,1.,1.,1.,1.,1.,1.,1.,1.,      201P    251
1.,1.,1.,1.,1.,1.,1.,1.,1.,1.,1.,1.,1.,1.,1.,1.,1.,1.,1.,1.,1.,      201P    252
1.,1.,1.,1.,1.,0.394127612,0.5,0.,0.394127612,0.51042752,0.,         201P    253
0.39616192,0.520654678,0.,0.398196228,0.530881837,0.,                201P    254
0.402186667,0.540515609,0.,0.406177106,0.550149381,0.,               201P    255
0.411970326,0.558819548,0.,0.417763546,0.567489714,0.,               201P    256
0.425136916,0.574863084,0.,0.432510286,0.582236454,0.,               201P    257
0.441180452,0.588029674,0.,0.449850619,0.593822894,0.,               201P    258
0.459484391,0.597813333,0.,0.469118163,0.601803772,0.,               201P    259
0.479345322,0.60383808,0.,0.48957248,0.605872388,0.,0.5,             201P    260
0.605872388,0.,0.51042752,0.605872388,0.,0.520654678,                201P    261
0.60383808,0.,0.530881837,0.601803772,0.,0.540515609,                201P    262
0.597813333,0.,0.550149381,0.593822894,0.,0.558819548,               201P    263
0.588029674,0.,0.567489714,0.582236454,0.,0.574863084,               201P    264
0.574863084,0.,0.582236454,0.567489714,0.,0.588029674,               201P    265
0.558819548,0.,0.593822894,0.550149381,0.,0.597813333,               201P    266
0.540515609,0.,0.601803772,0.530881837,0.,0.60383808,                201P    267
0.520654678,0.,0.605872388,0.51042752,0.,0.605872388,0.5,0.,0.,      201P    268
1.,0.,0.,1.;                                                         201P    269
124,-1.,-7.22789203751574E-15,8.55166289179392E-31,                  203P    270
-3.16411526996376E-28,-7.22789203751574E-15,1.,                      203P    271
-6.98296267768627E-15,2.58369619074392E-12,                          203P    272
4.96169340471388E-29,-6.98296267768627E-15,-1.,740.;                 203P    273
100,370.,0.,0.,15.,0.,-15.,0.;                                       205P    274
102,2,195,201;                                                       207P    275
102,2,199,205;                                                       209P    276
142,1,179,207,209,1;                                                 211P    277
144,179,1,1,193,211;                                                 213P    278
128,1,1,1,1,0,0,1,0,0,0.,0.,1.,1.,0.,0.,1.,1.,1.,1.,1.,1.,           215P    279
-70.84,-70.84,0.,70.84,-70.84,0.,-70.84,70.84,0.,70.84,70.84,        215P    280
0.,0.,1.,0.,1.;                                                      215P    281
126,64,2,1,0,1,0,0.,0.,0.,0.03125,0.03125,0.0625,0.0625,             217P    282
0.09375,0.09375,0.125,0.125,0.15625,0.15625,0.1875,0.1875,           217P    283
0.21875,0.21875,0.25,0.25,0.28125,0.28125,0.3125,0.3125,             217P    284
0.34375,0.34375,0.375,0.375,0.40625,0.40625,0.4375,0.4375,           217P    285
0.46875,0.46875,0.5,0.5,0.53125,0.53125,0.5625,0.5625,0.59375,       217P    286
0.59375,0.625,0.625,0.65625,0.65625,0.6875,0.6875,0.71875,           217P    287
0.71875,0.75,0.75,0.78125,0.78125,0.8125,0.8125,0.84375,             217P    288
0.84375,0.875,0.875,0.90625,0.90625,0.9375,0.9375,0.96875,           217P    289
0.96875,1.,1.,1.,1.,1.,1.,1.,1.,1.,1.,1.,1.,1.,1.,1.,1.,1.,1.,       217P    290
1.,1.,1.,1.,1.,1.,1.,1.,1.,1.,1.,1.,1.,1.,1.,1.,1.,1.,1.,1.,1.,      217P    291
1.,1.,1.,1.,1.,1.,1.,1.,1.,1.,1.,1.,1.,1.,1.,1.,1.,1.,1.,1.,1.,      217P    292
1.,1.,1.,1.,1.,1.,1.,1.,0.994071146,0.5,0.,0.994071146,              217P    293
0.524272159,0.,0.991692059,0.548427441,0.,0.989312971,               217P    294
0.572582723,0.,0.984577708,0.596388499,0.,0.979842444,               217P    295
0.620194275,0.,0.972796609,0.643421283,0.,0.965750773,               217P    296
0.666648291,0.,0.95646222,0.689072842,0.,0.947173667,                217P    297
0.711497393,0.,0.93573185,0.732903526,0.,0.924290033,                217P    298
0.754309659,0.,0.910805144,0.774491222,0.,0.897320255,               217P    299
0.794672784,0.,0.881922161,0.813435417,0.,0.866524066,               217P    300
0.83219805,0.,0.849361058,0.849361058,0.,0.83219805,                 217P    301
0.866524066,0.,0.813435417,0.881922161,0.,0.794672784,               217P    302
0.897320255,0.,0.774491222,0.910805144,0.,0.754309659,               217P    303
0.924290033,0.,0.732903526,0.93573185,0.,0.711497393,                217P    304
0.947173667,0.,0.689072842,0.95646222,0.,0.666648291,                217P    305
0.965750773,0.,0.643421283,0.972796609,0.,0.620194275,               217P    306
0.979842444,0.,0.596388499,0.984577708,0.,0.572582723,               217P    307
0.989312971,0.,0.548427441,0.991692059,0.,0.524272159,               217P    308
0.994071146,0.,0.5,0.994071146,0.,0.475727841,0.994071146,0.,        217P    309
0.451572559,0.991692059,0.,0.427417277,0.989312971,0.,               217P    310
0.403611501,0.984577708,0.,0.379805725,0.979842444,0.,               217P    311
0.356578717,0.972796609,0.,0.333351709,0.965750773,0.,               217P    312
0.310927158,0.95646222,0.,0.288502607,0.947173667,0.,                217P    313
0.267096474,0.93573185,0.,0.245690341,0.924290033,0.,                217P    314
0.225508778,0.910805144,0.,0.205327216,0.897320255,0.,               217P    315
0.186564583,0.881922161,0.,0.16780195,0.866524066,0.,                217P    316
0.150638942,0.849361058,0.,0.133475934,0.83219805,0.,                217P    317
0.118077839,0.813435417,0.,0.102679745,0.794672784,0.,               217P    318
0.089194856,0.774491222,0.,0.075709967,0.754309659,0.,               217P    319
0.06426815,0.732903526,0.,0.052826333,0.711497393,0.,                217P    320
0.04353778,0.689072842,0.,0.034249227,0.666648291,0.,                217P    321
0.027203391,0.643421283,0.,0.020157556,0.620194275,0.,               217P    322
0.015422292,0.596388499,0.,0.010687029,0.572582723,0.,               217P    323
0.008307941,0.548427441,0.,0.005928854,0.524272159,0.,               217P    324
0.005928854,0.5,0.,0.,1.,0.,0.,-1.;                                  217P    325
100,0.,0.,0.,70.,0.,-70.,0.;                                         219P    326
126,64,2,1,0,1,0,0.,0.,0.,0.03125,0.03125,0.0625,0.0625,             221P    327
0.09375,0.09375,0.125,0.125,0.15625,0.15625,0.1875,0.1875,           221P    328
0.21875,0.21875,0.25,0.25,0.28125,0.28125,0.3125,0.3125,             221P    329
0.34375,0.34375,0.375,0.375,0.40625,0.40625,0.4375,0.4375,           221P    330
0.46875,0.46875,0.5,0.5,0.53125,0.53125,0.5625,0.5625,0.59375,       221P    331
0.59375,0.625,0.625,0.65625,0.65625,0.6875,0.6875,0.71875,           221P    332
0.71875,0.75,0.75,0.78125,0.78125,0.8125,0.8125,0.84375,             221P    333
0.84375,0.875,0.875,0.90625,0.90625,0.9375,0.9375,0.96875,           221P    334
0.96875,1.,1.,1.,1.,1.,1.,1.,1.,1.,1.,1.,1.,1.,1.,1.,1.,1.,1.,       221P    335
1.,1.,1.,1.,1.,1.,1.,1.,1.,1.,1.,1.,1.,1.,1.,1.,1.,1.,1.,1.,1.,      221P    336
1.,1.,1.,1.,1.,1.,1.,1.,1.,1.,1.,1.,1.,1.,1.,1.,1.,1.,1.,1.,1.,      221P    337
1.,1.,1.,1.,1.,1.,1.,1.,0.005928854,0.5,0.,0.005928854,              221P    338
0.475727841,0.,0.008307941,0.451572559,0.,0.010687029,               221P    339
0.427417277,0.,0.015422292,0.403611501,0.,0.020157556,               221P    340
0.379805725,0.,0.027203391,0.356578717,0.,0.034249227,               221P    341
0.333351709,0.,0.04353778,0.310927158,0.,0.052826333,                221P    342
0.288502607,0.,0.06426815,0.267096474,0.,0.075709967,                221P    343
0.245690341,0.,0.089194856,0.225508778,0.,0.102679745,               221P    344
0.205327216,0.,0.118077839,0.186564583,0.,0.133475934,               221P    345
0.16780195,0.,0.150638942,0.150638942,0.,0.16780195,                 221P    346
0.133475934,0.,0.186564583,0.118077839,0.,0.205327216,               221P    347
0.102679745,0.,0.225508778,0.089194856,0.,0.245690341,               221P    348
0.075709967,0.,0.267096474,0.06426815,0.,0.288502607,                221P    349
0.052826333,0.,0.310927158,0.04353778,0.,0.333351709,                221P    350
0.034249227,0.,0.356578717,0.027203391,0.,0.379805725,               221P    351
0.020157556,0.,0.403611501,0.015422292,0.,0.427417277,               221P    352
0.010687029,0.,0.451572559,0.008307941,0.,0.475727841,               221P    353
0.005928854,0.,0.5,0.005928854,0.,0.524272159,0.005928854,0.,        221P    354
0.548427441,0.008307941,0.,0.572582723,0.010687029,0.,               221P    355
0.596388499,0.015422292,0.,0.620194275,0.020157556,0.,               221P    356
0.643421283,0.027203391,0.,0.666648291,0.034249227,0.,               221P    357
0.689072842,0.04353778,0.,0.711497393,0.052826333,0.,                221P    358
0.732903526,0.06426815,0.,0.754309659,0.075709967,0.,                221P    359
0.774491222,0.089194856,0.,0.794672784,0.102679745,0.,               221P    360
0.813435417,0.118077839,0.,0.83219805,0.133475934,0.,                221P    361
0.849361058,0.150638942,0.,0.866524066,0.16780195,0.,                221P    362
0.881922161,0.186564583,0.,0.897320255,0.205327216,0.,               221P    363
0.910805144,0.225508778,0.,0.924290033,0.245690341,0.,               221P    364
0.93573185,0.267096474,0.,0.947173667,0.288502607,0.,                221P    365
0.95646222,0.310927158,0.,0.965750773,0.333351709,0.,                221P    366
0.972796609,0.356578717,0.,0.979842444,0.379805725,0.,               221P    367
0.984577708,0.403611501,0.,0.989312971,0.427417277,0.,               221P    368
0.991692059,0.451572559,0.,0.994071146,0.475727841,0.,               221P    369
0.994071146,0.5,0.,0.,1.,0.,0.,-1.;                                  221P    370
100,0.,0.,0.,-70.,0.,70.,0.;                                         223P    371
102,2,217,221;                                                       225P    372
102,2,219,223;                                                       227P    373
142,1,215,225,227,1;                                                 229P    374
126,32,2,1,0,1,0,0.,0.,0.,0.0625,0.0625,0.125,0.125,0.1875,          231P    375
0.1875,0.25,0.25,0.3125,0.3125,0.375,0.375,0.4375,0.4375,0.5,        231P    376
0.5,0.5625,0.5625,0.625,0.625,0.6875,0.6875,0.75,0.75,0.8125,        231P    377
0.8125,0.875,0.875,0.9375,0.9375,1.,1.,1.,1.,1.,1.,1.,1.,1.,1.,      231P    378
1.,1.,1.,1.,1.,1.,1.,1.,1.,1.,1.,1.,1.,1.,1.,1.,1.,1.,1.,1.,1.,      231P    379
1.,1.,1.,1.,1.,0.394127612,0.5,0.,0.394127612,0.51042752,0.,         231P    380
0.39616192,0.520654678,0.,0.398196228,0.530881837,0.,                231P    381
0.402186667,0.540515609,0.,0.406177106,0.550149381,0.,               231P    382
0.411970326,0.558819548,0.,0.417763546,0.567489714,0.,               231P    383
0.425136916,0.574863084,0.,0.432510286,0.582236454,0.,               231P    384
0.441180452,0.588029674,0.,0.449850619,0.593822894,0.,               231P    385
0.459484391,0.597813333,0.,0.469118163,0.601803772,0.,               231P    386
0.479345322,0.60383808,0.,0.48957248,0.605872388,0.,0.5,             231P    387
0.605872388,0.,0.51042752,0.605872388,0.,0.520654678,                231P    388
0.60383808,0.,0.530881837,0.601803772,0.,0.540515609,                231P    389
0.597813333,0.,0.550149381,0.593822894,0.,0.558819548,               231P    390
0.588029674,0.,0.567489714,0.582236454,0.,0.574863084,               231P    391
0.574863084,0.,0.582236454,0.567489714,0.,0.588029674,               231P    392
0.558819548,0.,0.593822894,0.550149381,0.,0.597813333,               231P    393
0.540515609,0.,0.601803772,0.530881837,0.,0.60383808,                231P    394
0.520654678,0.,0.605872388,0.51042752,0.,0.605872388,0.5,0.,0.,      231P    395
1.,0.,0.,1.;                                                         231P    396
124,-1.,-7.22789203751574E-15,8.55166289179392E-31,0.,               233P    397
-7.22789203751574E-15,1.,-6.98296267768627E-15,0.,                   233P    398
4.96169340471388E-29,-6.98296267768627E-15,-1.,0.;                   233P    399
100,0.,0.,0.,15.,0.,-15.,0.;                                         235P    400
126,32,2,1,0,1,0,0.,0.,0.,0.0625,0.0625,0.125,0.125,0.1875,          237P    401
0.1875,0.25,0.25,0.3125,0.3125,0.375,0.375,0.4375,0.4375,0.5,        237P    402
0.5,0.5625,0.5625,0.625,0.625,0.6875,0.6875,0.75,0.75,0.8125,        237P    403
0.8125,0.875,0.875,0.9375,0.9375,1.,1.,1.,1.,1.,1.,1.,1.,1.,1.,      237P    404
1.,1.,1.,1.,1.,1.,1.,1.,1.,1.,1.,1.,1.,1.,1.,1.,1.,1.,1.,1.,1.,      237P    405
1.,1.,1.,1.,1.,0.605872388,0.5,0.,0.605872388,0.48957248,0.,         237P    406
0.60383808,0.479345322,0.,0.601803772,0.469118163,0.,                237P    407
0.597813333,0.459484391,0.,0.593822894,0.449850619,0.,               237P    408
0.588029674,0.441180452,0.,0.582236454,0.432510286,0.,               237P    409
0.574863084,0.425136916,0.,0.567489714,0.417763546,0.,               237P    410
0.558819548,0.411970326,0.,0.550149381,0.406177106,0.,               237P    411
0.540515609,0.402186667,0.,0.530881837,0.398196228,0.,               237P    412
0.520654678,0.39616192,0.,0.51042752,0.394127612,0.,0.5,             237P    413
0.394127612,0.,0.48957248,0.394127612,0.,0.479345322,                237P    414
0.39616192,0.,0.469118163,0.398196228,0.,0.459484391,                237P    415
0.402186667,0.,0.449850619,0.406177106,0.,0.441180452,               237P    416
0.411970326,0.,0.432510286,0.417763546,0.,0.425136916,               237P    417
0.425136916,0.,0.417763546,0.432510286,0.,0.411970326,               237P    418
0.441180452,0.,0.406177106,0.449850619,0.,0.402186667,               237P    419
0.459484391,0.,0.398196228,0.469118163,0.,0.39616192,                237P    420
0.479345322,0.,0.394127612,0.48957248,0.,0.394127612,0.5,0.,0.,      237P    421
1.,0.,0.,1.;                                                         237P    422
124,1.,-7.105427357601E-15,0.,0.,-7.105427357601E-15,-1.,            239P    423
6.98296267768627E-15,0.,-4.96169340471387E-29,                       239P    424
-6.98296267768627E-15,-1.,0.;                                        239P    425
100,0.,0.,0.,15.,0.,-15.,0.;                                         241P    426
102,2,231,237;                                                       243P    427
102,2,235,241;                                                       245P    428
142,1,215,243,245,1;                                                 247P    429
144,215,1,1,229,247;                                                 249P    430
110,0.,0.,435.,0.,0.,-565.;                                          251P    431
110,-15.,0.,435.,-15.,0.,370.;                                       253P    432
120,251,253,0.,6.28318530717959;                                     255P    433
126,1,1,1,0,1,0,0.,0.,1.,1.,1.,1.,1.,3.141592654,0.,0.,              257P    434
3.141592654,0.,0.,1.,0.,0.,1.;                                       257P    435
110,15.,0.,370.,15.,0.,435.;                                         259P    436
126,1,1,1,0,1,0,0.,0.,1.,1.,1.,1.,0.,3.141592654,0.,0.,              261P    437
6.283185307,0.,0.,1.,0.,0.,1.;                                       261P    438
124,1.,-7.105427357601E-15,0.,0.,-7.105427357601E-15,-1.,            263P    439
6.98296267768627E-15,-3.03758876479353E-12,                          263P    440
-4.96169340471387E-29,-6.98296267768627E-15,-1.,870.;                263P    441
100,435.,0.,0.,15.,0.,-15.,0.;                                       265P    442
126,1,1,1,0,1,0,0.,0.,1.,1.,1.,1.,0.,6.283185307,0.,1.,              267P    443
6.283185307,0.,0.,1.,0.,0.,1.;                                       267P    444
110,-15.,0.,435.,-15.,0.,370.;                                       269P    445
126,1,1,1,0,1,0,0.,0.,1.,1.,1.,1.,1.,6.283185307,0.,1.,              271P    446
3.141592654,0.,0.,1.,0.,0.,1.;                                       271P    447
100,370.,0.,0.,-15.,0.,15.,0.;                                       273P    448
102,4,257,261,267,271;                                               275P    449
102,4,259,265,269,273;                                               277P    450
142,1,255,275,277,1;                                                 279P    451
144,255,1,0,279;                                                     281P    452
128,1,1,1,1,0,0,1,0,0,0.,0.,1.,1.,0.,0.,1.,1.,1.,1.,1.,1.,           283P    453
-15.18,-15.18,435.,15.18,-15.18,435.,-15.18,15.18,435.,15.18,        283P    454
15.18,435.,0.,1.,0.,1.;                                              283P    455
126,64,2,1,0,1,0,0.,0.,0.,0.03125,0.03125,0.0625,0.0625,             285P    456
0.09375,0.09375,0.125,0.125,0.15625,0.15625,0.1875,0.1875,           285P    457
0.21875,0.21875,0.25,0.25,0.28125,0.28125,0.3125,0.3125,             285P    458
0.34375,0.34375,0.375,0.375,0.40625,0.40625,0.4375,0.4375,           285P    459
0.46875,0.46875,0.5,0.5,0.53125,0.53125,0.5625,0.5625,0.59375,       285P    460
0.59375,0.625,0.625,0.65625,0.65625,0.6875,0.6875,0.71875,           285P    461
0.71875,0.75,0.75,0.78125,0.78125,0.8125,0.8125,0.84375,             285P    462
0.84375,0.875,0.875,0.90625,0.90625,0.9375,0.9375,0.96875,           285P    463
0.96875,1.,1.,1.,1.,1.,1.,1.,1.,1.,1.,1.,1.,1.,1.,1.,1.,1.,1.,       285P    464
1.,1.,1.,1.,1.,1.,1.,1.,1.,1.,1.,1.,1.,1.,1.,1.,1.,1.,1.,1.,1.,      285P    465
1.,1.,1.,1.,1.,1.,1.,1.,1.,1.,1.,1.,1.,1.,1.,1.,1.,1.,1.,1.,1.,      285P    466
1.,1.,1.,1.,1.,1.,1.,1.,0.994071146,0.5,0.,0.994071146,              285P    467
0.524272159,0.,0.991692059,0.548427441,0.,0.989312971,               285P    468
0.572582723,0.,0.984577708,0.596388499,0.,0.979842444,               285P    469
0.620194275,0.,0.972796609,0.643421283,0.,0.965750773,               285P    470
0.666648291,0.,0.95646222,0.689072842,0.,0.947173667,                285P    471
0.711497393,0.,0.93573185,0.732903526,0.,0.924290033,                285P    472
0.754309659,0.,0.910805144,0.774491222,0.,0.897320255,               285P    473
0.794672784,0.,0.881922161,0.813435417,0.,0.866524066,               285P    474
0.83219805,0.,0.849361058,0.849361058,0.,0.83219805,                 285P    475
0.866524066,0.,0.813435417,0.881922161,0.,0.794672784,               285P    476
0.897320255,0.,0.774491222,0.910805144,0.,0.754309659,               285P    477
0.924290033,0.,0.732903526,0.93573185,0.,0.711497393,                285P    478
0.947173667,0.,0.689072842,0.95646222,0.,0.666648291,                285P    479
0.965750773,0.,0.643421283,0.972796609,0.,0.620194275,               285P    480
0.979842444,0.,0.596388499,0.984577708,0.,0.572582723,               285P    481
0.989312971,0.,0.548427441,0.991692059,0.,0.524272159,               285P    482
0.994071146,0.,0.5,0.994071146,0.,0.475727841,0.994071146,0.,        285P    483
0.451572559,0.991692059,0.,0.427417277,0.989312971,0.,               285P    484
0.403611501,0.984577708,0.,0.379805725,0.979842444,0.,               285P    485
0.356578717,0.972796609,0.,0.333351709,0.965750773,0.,               285P    486
0.310927158,0.95646222,0.,0.288502607,0.947173667,0.,                285P    487
0.267096474,0.93573185,0.,0.245690341,0.924290033,0.,                285P    488
0.225508778,0.910805144,0.,0.205327216,0.897320255,0.,               285P    489
0.186564583,0.881922161,0.,0.16780195,0.866524066,0.,                285P    490
0.150638942,0.849361058,0.,0.133475934,0.83219805,0.,                285P    491
0.118077839,0.813435417,0.,0.102679745,0.794672784,0.,               285P    492
0.089194856,0.774491222,0.,0.075709967,0.754309659,0.,               285P    493
0.06426815,0.732903526,0.,0.052826333,0.711497393,0.,                285P    494
0.04353778,0.689072842,0.,0.034249227,0.666648291,0.,                285P    495
0.027203391,0.643421283,0.,0.020157556,0.620194275,0.,               285P    496
0.015422292,0.596388499,0.,0.010687029,0.572582723,0.,               285P    497
0.008307941,0.548427441,0.,0.005928854,0.524272159,0.,               285P    498
0.005928854,0.5,0.,0.,1.,0.,0.,-1.;                                  285P    499
100,435.,0.,0.,15.,0.,-15.,0.;                                       287P    500
126,64,2,1,0,1,0,0.,0.,0.,0.03125,0.03125,0.0625,0.0625,             289P    501
0.09375,0.09375,0.125,0.125,0.15625,0.15625,0.1875,0.1875,           289P    502
0.21875,0.21875,0.25,0.25,0.28125,0.28125,0.3125,0.3125,             289P    503
0.34375,0.34375,0.375,0.375,0.40625,0.40625,0.4375,0.4375,           289P    504
0.46875,0.46875,0.5,0.5,0.53125,0.53125,0.5625,0.5625,0.59375,       289P    505
0.59375,0.625,0.625,0.65625,0.65625,0.6875,0.6875,0.71875,           289P    506
0.71875,0.75,0.75,0.78125,0.78125,0.8125,0.8125,0.84375,             289P    507
0.84375,0.875,0.875,0.90625,0.90625,0.9375,0.9375,0.96875,           289P    508
0.96875,1.,1.,1.,1.,1.,1.,1.,1.,1.,1.,1.,1.,1.,1.,1.,1.,1.,1.,       289P    509
1.,1.,1.,1.,1.,1.,1.,1.,1.,1.,1.,1.,1.,1.,1.,1.,1.,1.,1.,1.,1.,      289P    510
1.,1.,1.,1.,1.,1.,1.,1.,1.,1.,1.,1.,1.,1.,1.,1.,1.,1.,1.,1.,1.,      289P    511
1.,1.,1.,1.,1.,1.,1.,1.,0.005928854,0.5,0.,0.005928854,              289P    512
0.475727841,0.,0.008307941,0.451572559,0.,0.010687029,               289P    513
0.427417277,0.,0.015422292,0.403611501,0.,0.020157556,               289P    514
0.379805725,0.,0.027203391,0.356578717,0.,0.034249227,               289P    515
0.333351709,0.,0.04353778,0.310927158,0.,0.052826333,                289P    516
0.288502607,0.,0.06426815,0.267096474,0.,0.075709967,                289P    517
0.245690341,0.,0.089194856,0.225508778,0.,0.102679745,               289P    518
0.205327216,0.,0.118077839,0.186564583,0.,0.133475934,               289P    519
0.16780195,0.,0.150638942,0.150638942,0.,0.16780195,                 289P    520
0.133475934,0.,0.186564583,0.118077839,0.,0.205327216,               289P    521
0.102679745,0.,0.225508778,0.089194856,0.,0.245690341,               289P    522
0.075709967,0.,0.267096474,0.06426815,0.,0.288502607,                289P    523
0.052826333,0.,0.310927158,0.04353778,0.,0.333351709,                289P    524
0.034249227,0.,0.356578717,0.027203391,0.,0.379805725,               289P    525
0.020157556,0.,0.403611501,0.015422292,0.,0.427417277,               289P    526
0.010687029,0.,0.451572559,0.008307941,0.,0.475727841,               289P    527
0.005928854,0.,0.5,0.005928854,0.,0.524272159,0.005928854,0.,        289P    528
0.548427441,0.008307941,0.,0.572582723,0.010687029,0.,               289P    529
0.596388499,0.015422292,0.,0.620194275,0.020157556,0.,               289P    530
0.643421283,0.027203391,0.,0.666648291,0.034249227,0.,               289P    531
0.689072842,0.04353778,0.,0.711497393,0.052826333,0.,                289P    532
0.732903526,0.06426815,0.,0.754309659,0.075709967,0.,                289P    533
0.774491222,0.089194856,0.,0.794672784,0.102679745,0.,               289P    534
0.813435417,0.118077839,0.,0.83219805,0.133475934,0.,                289P    535
0.849361058,0.150638942,0.,0.866524066,0.16780195,0.,                289P    536
0.881922161,0.186564583,0.,0.897320255,0.205327216,0.,               289P    537
0.910805144,0.225508778,0.,0.924290033,0.245690341,0.,               289P    538
0.93573185,0.267096474,0.,0.947173667,0.288502607,0.,                289P    539
0.95646222,0.310927158,0.,0.965750773,0.333351709,0.,                289P    540
0.972796609,0.356578717,0.,0.979842444,0.379805725,0.,               289P    541
0.984577708,0.403611501,0.,0.989312971,0.427417277,0.,               289P    542
0.991692059,0.451572559,0.,0.994071146,0.475727841,0.,               289P    543
0.994071146,0.5,0.,0.,1.,0.,0.,-1.;                                  289P    544
100,435.,0.,0.,-15.,0.,15.,0.;                                       291P    545
102,2,285,289;                                                       293P    546
102,2,287,291;                                                       295P    547
142,1,283,293,295,1;                                                 297P    548
144,283,1,0,297;                                                     299P    549
128,1,1,1,1,0,0,1,0,0,0.,0.,1.,1.,0.,0.,1.,1.,1.,1.,1.,1.,           301P    550
15.18,-15.199812814,-155.,-15.18,-15.199812814,-155.,15.18,          301P    551
18.302135624,-155.,-15.18,18.302135624,-155.,0.,1.,0.,1.;            301P    552
126,16,2,1,0,1,0,0.,0.,0.,0.125,0.125,0.25,0.25,0.375,0.375,         303P    553
0.5,0.5,0.625,0.625,0.75,0.75,0.875,0.875,1.,1.,1.,1.,1.,1.,1.,      303P    554
1.,1.,1.,1.,1.,1.,1.,1.,1.,1.,1.,1.,1.,0.335309618,0.875828118,      303P    555
0.,0.299401303,0.864323247,0.,0.265862989,0.847967003,0.,            303P    556
0.232324675,0.83161076,0.,0.201948848,0.810789629,0.,                303P    557
0.171573021,0.789968499,0.,0.145077441,0.76517447,0.,                303P    558
0.118581861,0.740380441,0.,0.096592598,0.712199378,0.,               303P    559
0.074603336,0.684018316,0.,0.057639982,0.653116118,0.,               303P    560
0.040676627,0.62221392,0.,0.029140013,0.589320784,0.,                303P    561
0.017603399,0.556427647,0.,0.011766126,0.522320813,0.,               303P    562
0.005928854,0.488213979,0.,0.005928854,0.453699367,0.,0.,1.,0.,      303P    563
0.,-1.;                                                              303P    564
124,0.333333333333333,0.942809041582064,8.55166289179392E-31,        305P    565
6.78863233403585E-29,0.942809041582064,-0.333333333333333,           305P    566
-6.98296267768627E-15,-1.08235921504137E-12,                         305P    567
-6.58360034955271E-15,2.32765422589542E-15,-1.,-310.;                305P    568
100,-155.,0.,0.,15.,0.,5.,14.142135624;                              307P    569
126,64,2,1,0,1,0,0.,0.,0.,0.03125,0.03125,0.0625,0.0625,             309P    570
0.09375,0.09375,0.125,0.125,0.15625,0.15625,0.1875,0.1875,           309P    571
0.21875,0.21875,0.25,0.25,0.28125,0.28125,0.3125,0.3125,             309P    572
0.34375,0.34375,0.375,0.375,0.40625,0.40625,0.4375,0.4375,           309P    573
0.46875,0.46875,0.5,0.5,0.53125,0.53125,0.5625,0.5625,0.59375,       309P    574
0.59375,0.625,0.625,0.65625,0.65625,0.6875,0.6875,0.71875,           309P    575
0.71875,0.75,0.75,0.78125,0.78125,0.8125,0.8125,0.84375,             309P    576
0.84375,0.875,0.875,0.90625,0.90625,0.9375,0.9375,0.96875,           309P    577
0.96875,1.,1.,1.,1.,1.,1.,1.,1.,1.,1.,1.,1.,1.,1.,1.,1.,1.,1.,       309P    578
1.,1.,1.,1.,1.,1.,1.,1.,1.,1.,1.,1.,1.,1.,1.,1.,1.,1.,1.,1.,1.,      309P    579
1.,1.,1.,1.,1.,1.,1.,1.,1.,1.,1.,1.,1.,1.,1.,1.,1.,1.,1.,1.,1.,      309P    580
1.,1.,1.,1.,1.,1.,1.,1.,0.005928854,0.453699367,0.,0.005928854,      309P    581
0.43170355,0.,0.008307941,0.409813648,0.,0.010687029,                309P    582
0.387923746,0.,0.015422292,0.366350572,0.,0.020157556,               309P    583
0.344777398,0.,0.027203391,0.323728713,0.,0.034249227,               309P    584
0.302680028,0.,0.04353778,0.282358542,0.,0.052826333,                309P    585
0.262037057,0.,0.06426815,0.242638477,0.,0.075709967,                309P    586
0.223239898,0.,0.089194856,0.204951044,0.,0.102679745,               309P    587
0.18666219,0.,0.118077839,0.169659193,0.,0.133475934,                309P    588
0.152656197,0.,0.150638942,0.137102805,0.,0.16780195,                309P    589
0.121549413,0.,0.186564583,0.107595414,0.,0.205327216,               309P    590
0.093641415,0.,0.225508778,0.081421194,0.,0.245690341,               309P    591
0.069200972,0.,0.267096474,0.058832215,0.,0.288502607,               309P    592
0.048463459,0.,0.310927158,0.040046024,0.,0.333351709,               309P    593
0.031628589,0.,0.356578717,0.02524354,0.,0.379805725,                309P    594
0.018858491,0.,0.403611501,0.01456732,0.,0.427417277,                309P    595
0.010276149,0.,0.451572559,0.008120182,0.,0.475727841,               309P    596
0.005964215,0.,0.5,0.005964215,0.,0.524272159,0.005964215,0.,        309P    597
0.548427441,0.008120182,0.,0.572582723,0.010276149,0.,               309P    598
0.596388499,0.01456732,0.,0.620194275,0.018858491,0.,                309P    599
0.643421283,0.02524354,0.,0.666648291,0.031628589,0.,                309P    600
0.689072842,0.040046024,0.,0.711497393,0.048463459,0.,               309P    601
0.732903526,0.058832215,0.,0.754309659,0.069200972,0.,               309P    602
0.774491222,0.081421194,0.,0.794672784,0.093641415,0.,               309P    603
0.813435417,0.107595414,0.,0.83219805,0.121549413,0.,                309P    604
0.849361058,0.137102805,0.,0.866524066,0.152656197,0.,               309P    605
0.881922161,0.169659193,0.,0.897320255,0.18666219,0.,                309P    606
0.910805144,0.204951044,0.,0.924290033,0.223239898,0.,               309P    607
0.93573185,0.242638477,0.,0.947173667,0.262037057,0.,                309P    608
0.95646222,0.282358542,0.,0.965750773,0.302680028,0.,                309P    609
0.972796609,0.323728713,0.,0.979842444,0.344777398,0.,               309P    610
0.984577708,0.366350572,0.,0.989312971,0.387923746,0.,               309P    611
0.991692059,0.409813648,0.,0.994071146,0.43170355,0.,                309P    612
0.994071146,0.453699367,0.,0.,1.,0.,0.,-1.;                          309P    613
124,1.,-7.105427357601E-15,0.,0.,-7.105427357601E-15,-1.,            311P    614
6.98296267768627E-15,1.08235921504137E-12,                           311P    615
-4.96169340471387E-29,-6.98296267768627E-15,-1.,-310.;               311P    616
100,-155.,0.,0.,15.,0.,-15.,0.;                                      313P    617
126,16,2,1,0,1,0,0.,0.,0.,0.125,0.125,0.25,0.25,0.375,0.375,         315P    618
0.5,0.5,0.625,0.625,0.75,0.75,0.875,0.875,1.,1.,1.,1.,1.,1.,1.,      315P    619
1.,1.,1.,1.,1.,1.,1.,1.,1.,1.,1.,1.,1.,0.994071146,0.453699367,      315P    620
0.,0.994071146,0.488213979,0.,0.988233874,0.522320813,0.,            315P    621
0.982396601,0.556427647,0.,0.970859987,0.589320784,0.,               315P    622
0.959323373,0.62221392,0.,0.942360018,0.653116118,0.,                315P    623
0.925396664,0.684018316,0.,0.903407402,0.712199378,0.,               315P    624
0.881418139,0.740380441,0.,0.854922559,0.76517447,0.,                315P    625
0.828426979,0.789968499,0.,0.798051152,0.810789629,0.,               315P    626
0.767675325,0.83161076,0.,0.734137011,0.847967003,0.,                315P    627
0.700598697,0.864323247,0.,0.664690382,0.875828118,0.,0.,1.,0.,      315P    628
0.,-1.;                                                              315P    629
124,-1.,0.,6.58360034955271E-15,1.02045805418067E-12,0.,1.,          317P    630
2.32765422589542E-15,3.6078640501379E-13,-6.58360034955271E-15,      317P    631
2.32765422589542E-15,-1.,-310.;                                      317P    632
100,-155.,0.,0.,15.,0.,5.,14.142135624;                              319P    633
126,1,1,1,0,1,0,0.,0.,1.,1.,1.,1.,0.664690382,0.875828118,0.,        321P    634
0.664690382,1.,0.,0.,1.,0.,0.,1.;                                    321P    635
110,-5.,14.142135624,-155.,-5.,18.302135624,-155.;                   323P    636
126,1,1,1,0,1,0,0.,0.,1.,1.,1.,1.,0.664690382,1.,0.,                 325P    637
0.335309618,1.,0.,0.,1.,0.,0.,1.;                                    325P    638
110,-5.,18.302135624,-155.,5.,18.302135624,-155.;                    327P    639
126,1,1,1,0,1,0,0.,0.,1.,1.,1.,1.,0.335309618,1.,0.,                 329P    640
0.335309618,0.875828118,0.,0.,1.,0.,0.,1.;                           329P    641
110,5.,18.302135624,-155.,5.,14.142135624,-155.;                     331P    642
102,6,303,309,315,321,325,329;                                       333P    643
102,6,307,313,319,323,327,331;                                       335P    644
142,1,301,333,335,1;                                                 337P    645
144,301,1,0,337;                                                     339P    646
128,1,1,1,1,0,0,1,0,0,0.,0.,1.,1.,0.,0.,1.,1.,1.,1.,1.,1.,-5.,       341P    647
14.142135624,-100.,-5.,14.142135624,-155.,-5.,18.302135624,          341P    648
-100.,-5.,18.302135624,-155.,0.,1.,0.,1.;                            341P    649
126,1,1,1,0,1,0,0.,0.,1.,1.,1.,1.,0.,0.,0.,1.,0.,0.,0.,1.,0.,        343P    650
0.,1.;                                                               343P    651
110,-5.,14.142135624,-100.,-5.,14.142135624,-155.;                   345P    652
126,1,1,1,0,1,0,0.,0.,1.,1.,1.,1.,1.,0.,0.,1.,1.,0.,0.,1.,0.,        347P    653
0.,1.;                                                               347P    654
110,-5.,14.142135624,-155.,-5.,18.302135624,-155.;                   349P    655
126,1,1,1,0,1,0,0.,0.,1.,1.,1.,1.,1.,1.,0.,0.,1.,0.,0.,1.,0.,        351P    656
0.,1.;                                                               351P    657
110,-5.,18.302135624,-155.,-5.,18.302135624,-100.;                   353P    658
126,1,1,1,0,1,0,0.,0.,1.,1.,1.,1.,0.,1.,0.,0.,0.,0.,0.,1.,0.,        355P    659
0.,1.;                                                               355P    660
110,-5.,18.302135624,-100.,-5.,14.142135624,-100.;                   357P    661
102,4,343,347,351,355;                                               359P    662
102,4,345,349,353,357;                                               361P    663
142,1,341,359,361,1;                                                 363P    664
144,341,1,0,363;                                                     365P    665
128,1,1,1,1,0,0,1,0,0,0.,0.,1.,1.,0.,0.,1.,1.,1.,1.,1.,1.,-5.,       367P    666
18.302135624,-100.,-5.,18.302135624,-155.,5.,18.302135624,           367P    667
-100.,5.,18.302135624,-155.,0.,1.,0.,1.;                             367P    668
126,1,1,1,0,1,0,0.,0.,1.,1.,1.,1.,0.,0.,0.,1.,0.,0.,0.,1.,0.,        369P    669
0.,1.;                                                               369P    670
110,-5.,18.302135624,-100.,-5.,18.302135624,-155.;                   371P    671
126,1,1,1,0,1,0,0.,0.,1.,1.,1.,1.,1.,0.,0.,1.,1.,0.,0.,1.,0.,        373P    672
0.,1.;                                                               373P    673
110,-5.,18.302135624,-155.,5.,18.302135624,-155.;                    375P    674
126,1,1,1,0,1,0,0.,0.,1.,1.,1.,1.,1.,1.,0.,0.,1.,0.,0.,1.,0.,        377P    675
0.,1.;                                                               377P    676
110,5.,18.302135624,-155.,5.,18.302135624,-100.;                     379P    677
126,1,1,1,0,1,0,0.,0.,1.,1.,1.,1.,0.,1.,0.,0.,0.,0.,0.,1.,0.,        381P    678
0.,1.;                                                               381P    679
110,5.,18.302135624,-100.,-5.,18.302135624,-100.;                    383P    680
102,4,369,373,377,381;                                               385P    681
102,4,371,375,379,383;                                               387P    682
142,1,367,385,387,1;                                                 389P    683
144,367,1,0,389;                                                     391P    684
128,1,1,1,1,0,0,1,0,0,0.,0.,1.,1.,0.,0.,1.,1.,1.,1.,1.,1.,5.,        393P    685
14.142135624,-155.,5.,14.142135624,-100.,5.,18.302135624,-155.,      393P    686
5.,18.302135624,-100.,0.,1.,0.,1.;                                   393P    687
126,1,1,1,0,1,0,0.,0.,1.,1.,1.,1.,1.,1.,0.,0.,1.,0.,0.,1.,0.,        395P    688
0.,1.;                                                               395P    689
110,5.,18.302135624,-100.,5.,18.302135624,-155.;                     397P    690
126,1,1,1,0,1,0,0.,0.,1.,1.,1.,1.,0.,1.,0.,0.,0.,0.,0.,1.,0.,        399P    691
0.,1.;                                                               399P    692
110,5.,18.302135624,-155.,5.,14.142135624,-155.;                     401P    693
126,1,1,1,0,1,0,0.,0.,1.,1.,1.,1.,0.,0.,0.,1.,0.,0.,0.,1.,0.,        403P    694
0.,1.;                                                               403P    695
110,5.,14.142135624,-155.,5.,14.142135624,-100.;                     405P    696
126,1,1,1,0,1,0,0.,0.,1.,1.,1.,1.,1.,0.,0.,1.,1.,0.,0.,1.,0.,        407P    697
0.,1.;                                                               407P    698
110,5.,14.142135624,-100.,5.,18.302135624,-100.;                     409P    699
102,4,395,399,403,407;                                               411P    700
102,4,397,401,405,409;                                               413P    701
142,1,393,411,413,1;                                                 415P    702
144,393,1,0,415;                                                     417P    703
128,1,1,1,1,0,0,1,0,0,0.,0.,1.,1.,0.,0.,1.,1.,1.,1.,1.,1.,5.,        419P    704
14.117175624,-100.,-5.,14.117175624,-100.,5.,18.302135624,           419P    705
-100.,-5.,18.302135624,-100.,0.,1.,0.,1.;                            419P    706
126,1,1,1,0,1,0,0.,0.,1.,1.,1.,1.,1.,0.005964215,0.,1.,1.,0.,        421P    707
0.,1.,0.,0.,1.;                                                      421P    708
110,-5.,14.142135624,-100.,-5.,18.302135624,-100.;                   423P    709
126,1,1,1,0,1,0,0.,0.,1.,1.,1.,1.,1.,1.,0.,0.,1.,0.,0.,1.,0.,        425P    710
0.,1.;                                                               425P    711
110,-5.,18.302135624,-100.,5.,18.302135624,-100.;                    427P    712
126,1,1,1,0,1,0,0.,0.,1.,1.,1.,1.,0.,1.,0.,0.,0.005964215,0.,        429P    713
0.,1.,0.,0.,1.;                                                      429P    714
110,5.,18.302135624,-100.,5.,14.142135624,-100.;                     431P    715
126,8,2,1,0,1,0,0.,0.,0.,0.25,0.25,0.5,0.5,0.75,0.75,1.,1.,1.,       433P    716
1.,1.,1.,1.,1.,1.,1.,1.,1.,0.,0.005964215,0.,0.120440414,            433P    717
0.10771457,0.,0.246347032,0.159333129,0.,0.37225365,                 433P    718
0.210951688,0.,0.5,0.210951688,0.,0.62774635,0.210951688,0.,         433P    719
0.753652968,0.159333129,0.,0.879559586,0.10771457,0.,1.,             433P    720
0.005964215,0.,0.,1.,0.,0.,1.;                                       433P    721
100,-100.,0.,0.,5.,14.142135624,-5.,14.142135624;                    435P    722
102,4,421,425,429,433;                                               437P    723
102,4,423,427,431,435;                                               439P    724
142,1,419,437,439,1;                                                 441P    725
144,419,1,0,441;                                                     443P    726
S      1G      5D    444P    726                                        T      1
